<svg xmlns="http://www.w3.org/2000/svg" viewBox="0 0 1200 900"><g data-name="doctor checkup"><path fill="#eff5f9" d="M800.82,63.16c29.62,8.62,162,50.91,218.45,164.86,79.25,159.88-54.91,331.51-91.72,378.59-84.37,107.94-310,309.15-534.54,228-179.87-65-253.69-285-219.09-440.82C231,137,565.81-5.16,800.82,63.16Z"/><rect width="64.89" height="28.93" x="927.21" y="483.97" fill="none" stroke="#c9effb" stroke-miterlimit="10" stroke-width="2" rx="2"/><rect width="64.89" height="28.93" x="927.21" y="541.72" fill="none" stroke="#c9effb" stroke-miterlimit="10" stroke-width="2" rx="2"/><rect width="64.89" height="28.93" x="959.65" y="512.9" fill="none" stroke="#c9effb" stroke-miterlimit="10" stroke-width="2" rx="2"/><rect width="64.89" height="28.93" x="894.76" y="512.9" fill="none" stroke="#c9effb" stroke-miterlimit="10" stroke-width="2" rx="2"/><rect width="64.89" height="28.93" x="215.42" y="626.96" fill="none" stroke="#c9effb" stroke-miterlimit="10" stroke-width="2" rx="2"/><rect width="64.89" height="28.93" x="247.87" y="684.71" fill="none" stroke="#c9effb" stroke-miterlimit="10" stroke-width="2" rx="2"/><rect width="64.89" height="28.93" x="261.35" y="655.89" fill="none" stroke="#c9effb" stroke-miterlimit="10" stroke-width="2" rx="2"/><rect width="64.89" height="28.93" x="196.46" y="655.89" fill="none" stroke="#c9effb" stroke-miterlimit="10" stroke-width="2" rx="2"/><rect width="64.89" height="28.93" x="592.82" y="241.52" fill="none" stroke="#c9effb" stroke-miterlimit="10" stroke-width="2" rx="2"/><rect width="64.89" height="28.93" x="614.74" y="299.38" fill="none" stroke="#c9effb" stroke-miterlimit="10" stroke-width="2" rx="2"/><rect width="64.89" height="28.93" x="638.75" y="270.45" fill="none" stroke="#c9effb" stroke-miterlimit="10" stroke-width="2" rx="2"/><rect width="64.89" height="28.93" x="573.86" y="270.45" fill="none" stroke="#c9effb" stroke-miterlimit="10" stroke-width="2" rx="2"/><g><rect width="5" height="335.69" x="422.41" y="104.67" fill="#89dbf6"/><rect width="5" height="335.69" x="275.43" y="104.67" fill="#89dbf6"/><rect width="435.47" height="5" x="133.69" y="343.7" fill="#89dbf6"/><rect width="435.47" height="5" x="133.69" y="196.72" fill="#89dbf6"/><path fill="#87dbf6" d="M581.31,91.28H121.53A5.74,5.74,0,0,0,115.79,97V448.4a5.74,5.74,0,0,0,5.74,5.74H581.31a5.74,5.74,0,0,0,5.74-5.74V97A5.74,5.74,0,0,0,581.31,91.28ZM569.16,435.05a5.31,5.31,0,0,1-5.31,5.31H139a5.3,5.3,0,0,1-5.3-5.31V110.36a5.3,5.3,0,0,1,5.3-5.3H563.85a5.3,5.3,0,0,1,5.31,5.3Z"/></g><g><path fill="#c9effb" d="M406.72,632.42H317a8,8,0,0,1-8-8v-14.8c0-19.69,66-6,66-6s39.72-.63,39.72,6v14.8A8,8,0,0,1,406.72,632.42Z"/><path fill="#80cbe8" d="M406.72,620H317a8,8,0,0,1-8-8v12.45a8,8,0,0,0,8,8h89.68a8,8,0,0,0,8-8V612A8,8,0,0,1,406.72,620Z"/><rect width="752.58" height="37.02" x="237.29" y="632.42" fill="#c9effb" rx="10"/></g><g><polygon fill="#feaa40" points="117.29 627.14 148.04 444.45 183.22 444.45 213.97 627.14 117.29 627.14"/><path fill="#e3eaf3" d="M214.56,807.07c-1.16-7.8-2.43-15.58-3.68-23.37s-2.46-15.57-3.81-23.34c-2.64-15.54-5.21-31.09-8-46.6s-5.49-31-8.43-46.52a4.79,4.79,0,0,0-4.69-3.91h0l-16.12-.09.79-36.1H160.7l.78,36.08c-5.37,0-10.75.06-16.12.08h0a4.8,4.8,0,0,0-4.71,3.93l-4.33,23.24-4.15,23.28L128,737l-3.92,23.32c-1.34,7.76-2.59,15.55-3.82,23.34s-2.52,15.56-3.67,23.36c-2.37,15.59-4.67,31.2-6.69,46.86,3.89-15.3,7.49-30.66,11-46,1.81-7.68,3.46-15.39,5.19-23.08s3.42-15.39,5-23.1l4.94-23.13,4.75-23.16,4.71-23.17L149.34,673l12.36,0,3.93,180.86L169.57,673,182,673c2.74,14.17,5.62,28.3,8.51,42.44,3.09,15.45,6.43,30.86,9.7,46.28,1.6,7.72,3.36,15.4,5,23.1s3.39,15.4,5.18,23.08c3.5,15.38,7.11,30.74,11,46C219.27,838.26,217,822.65,214.56,807.07Z"/><path fill="#ea8826" d="M161.06,444.45H148L117.29,627.14h96.28c-11.47-18.78-41-24-56.12-51.44-9.28-16.81-6.53-43.15-1-95.84C158,465.15,159.6,453.58,161.06,444.45Z"/></g><g><rect width="168.55" height="156.63" x="915.6" y="697.28" fill="#c9effb"/><rect width="180.38" height="8.85" x="909.69" y="688.43" fill="#c9effb"/><rect width="168.55" height="8.25" x="915.6" y="697.28" fill="#80cbe8"/><path fill="#80cbe8" d="M955.26 646.69h36.08a0 0 0 010 0v23.7a18 18 0 01-18 18h0a18 18 0 01-18-18v-23.7A0 0 0 01955.26 646.69zM1044.4 646.69h36.08a0 0 0 010 0v23.7a18 18 0 01-18 18h0a18 18 0 01-18-18v-23.7A0 0 0 011044.4 646.69z"/><line x1="955.26" x2="991.33" y1="661.6" y2="661.6" fill="none" stroke="#fdfcf8" stroke-miterlimit="10" stroke-width="3"/><line x1="1044.4" x2="1080.48" y1="661.6" y2="661.6" fill="none" stroke="#fdfcf8" stroke-miterlimit="10" stroke-width="3"/><line x1="915.6" x2="1084.16" y1="740.61" y2="740.61" fill="none" stroke="#fdfcf8" stroke-miterlimit="10" stroke-width="3"/><line x1="915.6" x2="1084.16" y1="779.37" y2="779.37" fill="none" stroke="#fdfcf8" stroke-miterlimit="10" stroke-width="3"/><line x1="915.6" x2="1084.16" y1="818.13" y2="818.13" fill="none" stroke="#fdfcf8" stroke-miterlimit="10" stroke-width="3"/><circle cx="999.88" cy="720.04" r="6.46" fill="#80cbe8"/><circle cx="999.88" cy="759.99" r="6.46" fill="#80cbe8"/><circle cx="999.88" cy="799.94" r="6.46" fill="#80cbe8"/><circle cx="999.88" cy="839.89" r="6.46" fill="#80cbe8"/></g><g><path fill="#a04833" d="M954.61,316.72H876.1a4.72,4.72,0,0,1-4.76-4.76v-78.5a4.73,4.73,0,0,1,4.76-4.77h78.51a4.74,4.74,0,0,1,4.76,4.77V312A4.87,4.87,0,0,1,954.61,316.72Z"/><path fill="#ffc065" d="M956.6,319H874a5,5,0,0,1-5-5v-82.6a5,5,0,0,1,5-5h82.6a5,5,0,0,1,5,5V314A5,5,0,0,1,956.6,319ZM874,231.36V314h82.64l0-82.59Z"/><path fill="#ffc065" d="M896,292.06a63.09,63.09,0,0,1,3.4-6.3c1.7-1.5,3.2-3.2,4.9-4.8l9.7-9.7-.6,1.4v-12c0-2-.1-4,.1-6,.6-2,1.2-4,1.9-6a46.21,46.21,0,0,1,1.9,6c.1,2,0,4,.1,6v12.9l-.6.6-9.7,9.7c-1.6,1.6-3.3,3.2-4.8,4.9C900.3,289.86,898.2,291.06,896,292.06Z"/></g><g data-name="Patient/Head/Male"><path fill="#000001" d="M740.21 364.25s10.65.53 11.26 12.75 9.78 8.81 9.78 8.81-6.15 9.36-18.46-.36-13.94-11-13.94-11 0-9.71 10.56-10.26M745.05 389.88s-2.5 30.29-14.49 43.43-.22-44.44-.22-44.44z"/><path fill="#ea9d7d" d="M706.56,448c.62-2.22-2-7.61-3.61-10.72,10.86,1.66,23.78-6,30.51-19.56a5,5,0,0,0,1.29.47s1.06,28.21,7.17,28.56c7.15,6.13,30.51,26.89,25.76,36.53-4,8.07-25.56,3.91-57.72-2.3a16.3,16.3,0,0,1-8.39-4c-6.75-6.43-4.9-18-4-20.61C698.85,453,705.65,451.22,706.56,448Z"/><path fill="#d18165" d="M730,451.24c4.26-9.24-4.69-11.2-4.69-11.2l.06-.13c-5.92,4-12.53,5.73-18.47,4.58l-.82-.19a47.94,47.94,0,0,0-3.13-7.06c10.85,1.66,23.15-6.72,29.88-20.29a2,2,0,0,0,1.91,1.19s.2,5.25.92,11.24h0c.94,7.93,2.78,17.19,6.26,17.39,9.69,8.22,33.09,29.16,28.4,38.45s-36.81,6-60.36-4.22c-3.59-1.56-6.52-3.09-8.65-4.27C716,478.35,726.18,459.53,730,451.24Z"/><path fill="#ea9d7d" d="M719.75,364.53c12.4,2.41,20,18.2,18.25,36.53h.1c3.39.66,5.39,5,4.46,9.77s-4.42,8-7.81,7.38a2.79,2.79,0,0,1-2-1c-6.88,13.88-19.52,22.11-30.53,20-13.65-2.66-18.48-19.51-14.46-40.14S706.1,361.86,719.75,364.53Z"/><path fill="#be3e5f" d="M706.25,422.62a83.56,83.56,0,0,0-11.3,1.55s.38-5.37,4.85-6S706.25,422.62,706.25,422.62Z"/><path fill="#d18165" d="M696.66,395.73a19.6,19.6,0,0,1,.13,6.26,10.42,10.42,0,0,1-.92,3.18c-.28.58-.55.93-.81,1.38s-.51.84-.73,1.26a5.42,5.42,0,0,0-.8,2.36,1.16,1.16,0,0,0,.28.82,3.14,3.14,0,0,0,1,.64,24.59,24.59,0,0,0,5.84,1,12.38,12.38,0,0,1-6.34.44,3.75,3.75,0,0,1-1.68-.88,2.91,2.91,0,0,1-.94-1.91,6.33,6.33,0,0,1,.93-3.45c.26-.48.54-.93.83-1.37s.62-.89.81-1.23a11.31,11.31,0,0,0,1.06-2.6C695.82,399.76,696.22,397.76,696.66,395.73Z"/><path fill="#000001" d="M714.79 393a43.59 43.59 0 01-6-.58 17.83 17.83 0 01-2.83-.73c-1-.29-1.83-.74-2.84-1.15a6.91 6.91 0 002.33 2.23 9 9 0 003.06 1.16 10.43 10.43 0 003.25.07A8.07 8.07 0 00714.79 393zM689.61 390c-.16.49-.32 1-.47 1.47l.14 0a10.43 10.43 0 003.25.07 7.89 7.89 0 003.05-1A43 43 0 01689.61 390zM690.34 403.3a1.54 1.54 0 001.8-1.21l.86-4.4a1.53 1.53 0 10-3-.59l-.86 4.4A1.54 1.54 0 00690.34 403.3zM705.76 404.24a1.53 1.53 0 001.79-1.21l.86-4.4a1.53 1.53 0 10-3-.59l-.85 4.4A1.53 1.53 0 00705.76 404.24z"/><path fill="#d18165" d="M738.22,405.28a4.83,4.83,0,0,1,1.8,2.34,5.61,5.61,0,0,1-1.19,5.8,6.51,6.51,0,0,1-1.15,1,6.18,6.18,0,0,1-1.35.58c.19-.48.44-.86.64-1.26s.42-.77.56-1.17a9.88,9.88,0,0,0,.76-2.24A13.69,13.69,0,0,0,738.22,405.28Z"/><path fill="#000001" d="M744.16,382.74c-4.65-9.13-9.74-8.43-9.74-8.43-1.76-3.95-4-8.11-9.15-10.87s-6,.08-10.48-.72-6.35-3.48-10.87-1.77c-2.27.86-4.41,4.53-11.21,10.68-8,7.23-2.28,15.94-2.28,15.94a64.9,64.9,0,0,1,8.05-12.78c-.15,2,1.45,3.48,3.22,4.45a10.27,10.27,0,0,0,7.2.94c11.83-2.6,18.6-.12,18.6-.12-4.73,10.3-.27,6.56,3.6,15.6s-4.32,25.83-7.74,28.43-10.22-5.71-11.75-7.45-3.79-4-12.71-4.21S686.67,416,686.67,416c-1,11.4,4.41,17.86,8.21,20.93a12.72,12.72,0,0,0,6.74,2.74c13,1.37,21.34-4.88,25.79-11.2C732.24,421.62,738.1,401,738.1,401,746.94,407.42,746.22,386.79,744.16,382.74ZM706.4,428.46c-4.68-.2-4.39-3.46-6.3-3.67s-2.48,3.65-5.11,3.36c-2.14-.24-3.37-1.12-3.7-3.52a8,8,0,0,1,.34-3.56c.75-2.38,1.4-5.55,6.24-6.4,5.09-.89,8.58,1,9.8,2.17C710.79,419.84,711.08,428.65,706.4,428.46Z"/></g><g data-name="Patient/Bottom/Sitting"><path fill="#ea9d7d" d="M641.08,728.56,637,721.8,612.69,734a19.81,19.81,0,0,1,1.57,7.88C614.13,746,641.08,728.56,641.08,728.56Z"/><path fill="#25beef" d="M781.52,579.81s21.36,43.29-18.47,64.06-64.65,28.29-65.8,37,6.35,20.2,2.89,54.83-9.24,75.61-9.24,75.61-30.59,4.62-35.21,0,1.16-62.59-4-114.7c0,0-9.81-25,3.18-40.56l11-10.39L600.86,645s17.89,19.05,23.95,36.07,14.14,41,14.14,41l-27.41,13.27s-38.68-59.74-51.95-71.57-28.29-45-5.2-54,75.89-20.53,135.34-22.26l2.17-7.75Z"/><path fill="#1a87c4" d="M695.71,616l-29.92,29.63L600.86,645s17.89,19.05,23.95,36.07,14.14,41,14.14,41l-27.41,13.27c3.91-9.52,7.93-23.59,5.09-39.34-6.17-34.33-36.93-47.29-34-60.79C585,624.74,607.72,614.73,695.71,616Z"/><path fill="#d18165" d="M619.57,844.15c9.23-8.27,31.17-18.66,36.17-32.9,3.84,3.84,25.59,1.3,32.84.33h0s3.52,11.21,3.72,19.29,0,10.39,0,10.39L678.83,843v-3.46s-7.89.39-12.12,4.62-16.36,9.81-29.44,9.23S610.33,852.42,619.57,844.15Z"/><path fill="#fc7e85" d="M637.28,853.38c13.08.58,25.2-5,29.43-9.23s12.12-4.62,12.12-4.62V843l13.47-1.73s.2-2.31,0-10.39a65.46,65.46,0,0,0-1.92-12.66c-.92-3.82-1.8-6.62-1.8-6.62-7.24,1-29,3.49-32.83-.34a26.73,26.73,0,0,1-4.52,7.74c-.63.79-1.3,1.56-2,2.31l-1.8,1.8c-.78.75-1.59,1.5-2.44,2.24-8.53,7.43-19.54,13.55-25.43,18.81C610.34,852.42,624.19,852.81,637.28,853.38Z"/><path fill="#7c2f13" d="M637.27 853.38c-10.5-.46-21.49-.8-20.64-5.2 32.84 7.88 45.84-5 48.23-8.84s8.2-4.23 8.2-4.23c10.63-.12 16.32-3.5 19.13-6.1 0 .63.09 1.26.11 1.86.19 8.08 0 10.39 0 10.39L678.83 843v-3.46s-7.89.39-12.12 4.62S650.35 854 637.27 853.38zM649.24 821.3c.62.42 1.28.82 1.94 1.19a18.21 18.21 0 002.77 1.34 12 12 0 003.27.89 8.65 8.65 0 00-1.84-3 11 11 0 00-2.62-2.07 12.47 12.47 0 00-1.53-.71C650.6 819.78 649.93 820.55 649.24 821.3zM645 825.34c.45.27.9.55 1.37.8a22.94 22.94 0 002.77 1.35 12 12 0 003.27.88 8.53 8.53 0 00-1.84-3 11 11 0 00-2.62-2.07c-.16-.09-.33-.17-.51-.25C646.66 823.85 645.85 824.6 645 825.34z"/><path fill="#d18165" d="M588.9,782.29c5.81-11,22.79-28.29,22.57-43.38,4.92,2.28,24.46-7.63,30.93-11h0s7.18,9.3,10.15,16.82,3.6,9.75,3.6,9.75l-12,6.28-1.2-3.25s-7.27,3.09-9.78,8.52-12,14.86-24.43,18.85S583.1,793.25,588.9,782.29Z"/><path fill="#fc7e85" d="M608.71,784.83c12.48-4,21.92-13.41,24.43-18.84s9.78-8.53,9.78-8.53l1.19,3.25,12-6.28s-.62-2.23-3.59-9.75a66.63,66.63,0,0,0-6.19-11.22c-2.17-3.26-4-5.59-4-5.59-6.47,3.41-26,13.31-30.93,11a26.29,26.29,0,0,1-1.56,8.83c-.32,1-.68,1.91-1.07,2.85-.35.78-.7,1.54-1.06,2.31-.48,1-1,2-1.51,3-5.44,9.91-13.66,19.47-17.36,26.44C583.1,793.24,596.23,788.82,608.71,784.83Z"/><path fill="#7c2f13" d="M608.7 784.84c-10 3.19-20.44 6.67-21.16 2.25 33.54-4 41.29-20.54 42.2-25s6.22-6.81 6.22-6.81c9.94-3.79 14.11-8.93 15.85-12.34.27.58.52 1.15.74 1.72 3 7.51 3.6 9.75 3.6 9.75l-12 6.28-1.2-3.25s-7.27 3.09-9.78 8.52S621.18 780.85 608.7 784.84zM608.84 750.59c.73.18 1.49.33 2.23.45a19 19 0 003.07.3 12.11 12.11 0 003.37-.3 8.52 8.52 0 00-2.75-2.13 10.87 10.87 0 00-3.16-1 12 12 0 00-1.69-.13C609.59 748.69 609.23 749.65 608.84 750.59zM606.27 755.85c.51.1 1 .2 1.55.28a23.31 23.31 0 003.07.3 12.11 12.11 0 003.37-.3 8.41 8.41 0 00-2.75-2.13 10.87 10.87 0 00-3.16-1 5.51 5.51 0 00-.57-.06C607.3 753.88 606.81 754.86 606.27 755.85z"/><path fill="#1a87c4" d="M690.9,811.26c-.78.12-1.57.23-2.35.33h0l-3.63.45h-.07l-3.58.39-1.15.12h0c-1.65.16-3.28.29-4.91.42l-2.09.13-.38,0-2,.1h0l-2.16.06h0c-.71,0-1.41,0-2.1,0h0a38.65,38.65,0,0,1-7.27-.6h0C673,800,679.2,787.8,682.24,779.23c10.12-28.5,4.3-68.53,2.89-78.21-1.53-10.53-3.24-17.36.34-25.57,4.69-10.71,14-14.45,31.41-22.92,15.84-7.7,30-14.59,40.46-22.78a19.92,19.92,0,0,0,6.16-23.83c-2.47-5.38-7.38-9.8-16.71-10.49a96.4,96.4,0,0,1-44.89-15.62h79.63v0l0,0,0,.09,0,.08.08.18,0,.06.14.32a1.17,1.17,0,0,1,.05.11l.13.3s0,.1.07.15l.16.39.05.11.23.57.06.16c.07.16.13.32.2.49a2.09,2.09,0,0,0,.08.23l.21.55a1.59,1.59,0,0,1,.07.2c.1.25.19.52.29.79l.06.17.24.69c0,.1.06.2.1.3s.14.44.22.67l.09.28.3,1s0,.09,0,.13c.08.3.17.6.26.91l.09.35c.08.26.15.52.22.79l.09.35c.1.38.2.76.29,1.16h0l.27,1.19c0,.13.05.26.08.38.07.3.13.6.19.91,0,.13.05.27.08.4l.21,1.12,0,.19c.08.44.15.88.22,1.33,0,.13,0,.26,0,.39.05.33.09.67.14,1,0,.16,0,.31.05.46,0,.37.09.74.13,1.11l0,.31.12,1.43c0,.13,0,.25,0,.38l.06,1.1c0,.17,0,.33,0,.49,0,.37,0,.74,0,1.12,0,.13,0,.26,0,.4,0,.49,0,1,0,1.5,0,.11,0,.22,0,.33,0,.4,0,.81-.05,1.21l0,.5c0,.38,0,.76-.09,1.13,0,.15,0,.3,0,.45,0,.52-.11,1-.17,1.56,0,.08,0,.15,0,.23-.06.44-.13.89-.21,1.34,0,.17-.06.34-.09.5-.06.38-.14.76-.22,1.14,0,.16-.07.33-.1.49-.12.52-.24,1-.38,1.56a39.46,39.46,0,0,1-3.37,8.58q-.4.74-.84,1.47l-.31.53c-.36.57-.73,1.13-1.13,1.7l-.29.42a40.27,40.27,0,0,1-2.66,3.32c-.12.14-.24.27-.37.4-.49.55-1,1.09-1.54,1.62a49.32,49.32,0,0,1-10.41,7.72c-.59.34-1.2.67-1.82,1q-5.59,2.93-10.8,5.51c-2.31,1.15-4.55,2.26-6.74,3.32l-3.22,1.56-6.16,2.94-5.76,2.71c-11.1,5.21-19.71,9.18-25.37,12.69a37.71,37.71,0,0,0-3.69,2.55,18.8,18.8,0,0,0-1.82,1.64,7.34,7.34,0,0,0-2.24,4,17.55,17.55,0,0,0-.07,3.42c.2,2.68.87,5.77,1.6,9.71.09.51.19,1,.28,1.58s.17,1,.25,1.44.17,1,.25,1.52a129.26,129.26,0,0,1,1.4,25.15c0,.93-.07,1.88-.12,2.86-.15,2.86-.38,5.9-.7,9.15-.13,1.3-.27,2.6-.4,3.91l0,.36c-.27,2.63-.56,5.28-.85,7.93l0,.33-.45,4c-.18,1.66-.37,3.32-.56,5h0c-.19,1.61-.37,3.2-.56,4.79l0,.24c-.25,2.14-.51,4.26-.76,6.35-.12,1-.25,2-.37,3l0,.28c-.12.93-.23,1.86-.35,2.77l0,.36q-.36,2.89-.71,5.65l0,.34c-.24,1.88-.47,3.71-.7,5.47-.94,7.29-1.77,13.5-2.36,17.88,0,.27-.08.54-.11.8s-.07.51-.11.76c-.33,2.41-.56,4.1-.67,4.88C690.93,811.09,690.9,811.26,690.9,811.26Z"/><path fill="#fff" d="M659.1,812.71a98.9,98.9,0,0,0,13.28-15.49,74.42,74.42,0,0,0,9.12-18.09,100.77,100.77,0,0,0,4.32-19.81,158.31,158.31,0,0,0,1.1-20.31,270.62,270.62,0,0,0-3.61-40.56c-.53-3.37-1.11-6.76-1.33-10.29a35.45,35.45,0,0,1,.06-5.35,27.59,27.59,0,0,1,1.1-5.3,27,27,0,0,1,5.21-9.41,34.38,34.38,0,0,1,8.18-6.8c3-1.86,6.05-3.43,9.13-5s6.16-3,9.23-4.47c6.15-3,12.28-6,18.34-9a185.79,185.79,0,0,0,17.66-10.06q2.11-1.39,4.14-2.89a27.05,27.05,0,0,0,3.74-3.15,21.19,21.19,0,0,0,2.87-3.85,21.68,21.68,0,0,0,1.83-4.46,18.27,18.27,0,0,0,0-9.54,16.65,16.65,0,0,0-5-8.14,18.33,18.33,0,0,0-8.74-4.09c-3.2-.58-6.76-.68-10.12-1.35a95.08,95.08,0,0,1-19.74-5.75,89.38,89.38,0,0,1-18-9.76,78.84,78.84,0,0,0,8.93,5,99.53,99.53,0,0,0,9.38,4,92.64,92.64,0,0,0,19.68,5c3.37.59,6.67.6,10.2,1.15a20.11,20.11,0,0,1,9.67,4.32c5.57,4.72,7.72,12.7,5.94,19.69a21.61,21.61,0,0,1-5.1,9.45,27.91,27.91,0,0,1-4,3.49c-1.38,1-2.79,2-4.22,3a190.36,190.36,0,0,1-17.81,10.39c-6.08,3.17-12.24,6.15-18.37,9.14s-12.38,5.83-18,9.34a31.77,31.77,0,0,0-7.54,6.19,24.19,24.19,0,0,0-4.66,8.37c-2.1,6.14-.79,12.88.18,19.62a254.49,254.49,0,0,1,3.11,41,160.65,160.65,0,0,1-1.53,20.55,100.47,100.47,0,0,1-4.81,20C678,792.57,669.41,803.8,659.1,812.71Z"/></g><g data-name="Patient/Torso"><path fill="#ea9d7d" d="M666.58,510.48,653.44,546a6.87,6.87,0,0,1-5.48,4.44l-49.32,7.12a13,13,0,0,1-10.41-3.05c-5.46-4.73-14.23-12.08-16.07-12.08-2.72,0-7.54,1.69,3.62,11.4,0,0-1.68,1.42-7,1.42s-25.86-.6-26.31,1.06-5.58,5.13,22.33,5.73c0,0,1.2,2.57-1.21,2.57s-25.34-.15-23.08,2.86,5.58,2.42,23.83,2.72c0,0,1.36,2,.46,2.26s-22.63.91-22.63,2.72-3.92,4.07,27.15,2.56c0,0,.45,1.06-2.71,2s-17.05,4.37-13.43,6,4.07.91,20.21-3.47L587.43,580a24.21,24.21,0,0,1,7.26-.08c14.72,2.07,69.84,6.78,83.54-7.45,12.82-13.32,19.73-61,19.73-61Z"/><path fill="#d18165" d="M542.14,575.19c0-1.81,21.72-2.42,22.63-2.72s-.46-2.26-.46-2.26c-13.92-.23-19.15.06-21.86-1.12,6.63-2.06,19.08.37,40.68,2.63,39.21,4.12,50.68,1.62,55.2.48,12.43-3.13,24.28-6.48,31.68-16.8,9-12.56,5.22-27.2,4.9-44.64l23.05.77s-6.91,47.63-19.73,61c-13.68,14.21-68.71,9.53-83.5,7.46a24.15,24.15,0,0,0-7.3.07l-14.07,2.26c-16.14,4.38-16.59,5.13-20.21,3.47s10.26-5.12,13.43-6,2.71-2,2.71-2C538.22,579.26,542.14,577,542.14,575.19Z"/><path fill="none" stroke="#2f170b" stroke-miterlimit="10" stroke-width="2" d="M575.78,553.85s.68,16.73,16.06,15.6"/><line x1="600.01" x2="600.01" y1="557.38" y2="579.57" fill="none" stroke="#2f170b" stroke-linecap="round" stroke-linejoin="round" stroke-width="6"/><path fill="#25beef" d="M646.94,546.3a7.48,7.48,0,0,0,4.81-4.85l21.42-66.25a39.07,39.07,0,0,1,13-19A28.68,28.68,0,0,1,691.2,453a1,1,0,0,1,1.43.94l-1.9,58.8L689.15,555a29.32,29.32,0,0,1-29.29,28.22h-56.4l1.44-28.32C603.78,554.9,635.53,550,646.94,546.3Z"/><path fill="#1a87c4" d="M604,573.45c43.72,4.76,59.31-4.24,65.32-13.63,6.84-10.69,6.58-30.18,6.3-51.48,0,0-.23-18.06,6.43-33.1,1.19-2.69,4.48-10,8.16-9.84a3.29,3.29,0,0,1,2.06,1l-1.5,46.33L689.15,555a29.32,29.32,0,0,1-29.29,28.22h-56.4Z"/><path fill="#25beef" d="M692.36,580.91h88.77a2.69,2.69,0,0,0,2.65-3.19L759.91,450.5l-18.85-4.17c-6.73,14.27-27.45,14.92-34.07.6l-14.31,5.44a10.9,10.9,0,0,0-8.3,11.15l.15,4.51,3.57,108.76C688.11,577.08,688.19,578.54,692.36,580.91Z"/><path fill="#ea9d7d" d="M836.69,647.08a24.27,24.27,0,0,1-.73-5.5c-.23-15.57-1.71-75-10.67-102-2.86-8.62-29.07-52.53-29.07-52.53l-37.44,7.91,33,54.79a27.38,27.38,0,0,1,3.18,7.83l20.11,85.65a8.07,8.07,0,0,1-1.49,6.82c-4.23,5.43-12.61,16.46-12.47,18.48.18,2.71,2.18,7.42,11.13-4.37,0,0,1.53,1.58,1.89,6.91s1.12,25.85,2.81,26.19,5.49,5.22,4.23-22.66c0,0,2.48-1.38,2.64,1s1.54,25.3,4.4,22.84,2-5.73,1.12-24c0,0,1.86-1.49,2.22-.6s2.42,22.51,4.22,22.39,4.33,3.64.75-27.26c0,0,1-.52,2.14,2.58s5.5,16.71,6.91,13,.63-4.13-4.81-19.94l-4-17.57Z"/><path fill="#d18165" d="M758.78,494.94l8.84-1.86c6.59,8.37,14.8,14.45,25.48,30.09,8.32,12.19,13.71,24.59,16.11,29.83,6.56,14.37,5.22,21.69,9.6,57.12,2.62,21.28,3.94,31.92,5.32,37.48,0,0,9.88,39.86,5,49.73a2.72,2.72,0,0,1-1,1.12c-2.86,2.46-4.24-20.43-4.4-22.84s-2.64-1-2.64-1c1.26,27.88-2.54,23-4.23,22.66s-2.45-20.76-2.81-26.15h0v0c-.36-5.33-1.89-6.91-1.89-6.91-9,11.79-11,7.08-11.13,4.37-.14-2,8.24-13,12.47-18.48a8.07,8.07,0,0,0,1.49-6.82l-20.11-85.65a27.38,27.38,0,0,0-3.18-7.83Z"/><path fill="#25beef" d="M835.84,640.82a2.46,2.46,0,0,0,2.46-2.3c.77-12-1-67.52-7.79-95.26-5-20.28-40.76-72.79-40.76-72.79s-16.46-17.23-29.84-20l-7.62,39.74,38.49,63.61c.38.57,15.72,70.09,19.4,84.41a3.39,3.39,0,0,0,3.3,2.56Z"/><path fill="#1a87c4" d="M779.24,531.2l-26.77-40.68.06-.39a4.34,4.34,0,0,1,6.9-2.8c5.11,3.89,11.64,10.58,17.62,16.71,6.24,6.4,12.94,13.27,16.05,19.13l-12,8.39A1.35,1.35,0,0,1,779.24,531.2Z"/><path fill="#1a87c4" d="M688.1,576.79c5.87-2.08,21.15-2.15,44.31-9.45,21.72-6.84,26.1-12.4,28.08-16.38,4.65-9.35,1.61-21.22.36-26.1-2.25-8.76-2.88-12.11-7.38-23.22-1.51-3.73-2-12.76,0-13.5,2.33-.86,11.5,9.65,18.23,23.62l12,65.88a2.69,2.69,0,0,1-2.63,3.27H692.36a4.26,4.26,0,0,1-4.26-4.12Z"/><path fill="#1a87c4" d="M813.48,640.82a3.41,3.41,0,0,1-3.31-2.56c-3.67-14.32-19-83.84-19.39-84.41l-25-41.37-2.61-12.62,30,23.31s12.08,14.86,15.32,34.21,14.39,83.37,14.4,83.44Z"/></g><g data-name="Doctor/Bottom"><path fill="#454851" d="M565.93 853.37c-14 2-27.62-2.68-32.63-6.78s-13.12-2.49-13.12-2.49l.24 9.75-14.66-.42s-.73-9.67-1.38-18.38c-.33-4.35 1.09-6.78 1.65-11s3.58-11 3.58-11c7.89.26 28.26 1.46 32-3.07a28.21 28.21 0 005.68 7.84c.76.78 1.57 1.53 2.39 2.27s1.4 1.17 2.12 1.74c.92.73 1.87 1.45 2.86 2.15 10 7.07 22.46 12.48 29.34 17.5C594.79 849.46 579.94 851.35 565.93 853.37zM426.37 846c-12.94-5.72-22-16.94-24.06-23.06s-9.52-10.29-9.52-10.29l-4.09 6.54-12.2-8.14s3.35-5.51 7.41-13.24c2-3.86 4.53-5.17 7.22-8.42S400 782 400 782c6.56 4.41 23.18 16.22 28.73 14.35a28.36 28.36 0 00.66 9.67c.23 1.06.51 2.13.82 3.19.28.87.57 1.73.87 2.6.4 1.1.82 2.22 1.28 3.34 4.7 11.27 12.42 22.49 15.59 30.4C452.9 858 439.31 851.75 426.37 846z"/><path fill="#25beef" d="M532.59,521.05s15.61,138.53,16.1,150.73-6.59,139.13-6.59,139.13-19,7.65-32.62,2.44c0,0-10.74-97.31-9.12-122l-3.58-46.86s-2.93,39-5.85,43.6S431,799.68,431,799.68,398.5,785,398.5,780.81c0,0,18.88-78.11,43-99.91q.17-45.33.32-90.64a90.93,90.93,0,0,1-5.85-43,89.19,89.19,0,0,1,7.32-26.85S513.06,530.81,532.59,521.05Z"/><path fill="#1a87c4" d="M497.92,629.31c2.61-30,8-58.76,9.77-58.58,1.34.14-.05,15.07-.49,49.31-.36,27.93.19,46.68,1,73.22,1.53,51.81,3.61,60.69,5.83,67.86a139.36,139.36,0,0,0,28.1,49.79c-6.4,2.88-16.77,6.2-28.37,3.64a39.21,39.21,0,0,1-4.25-1.2s-10.74-97.31-9.12-122L496.9,646C497,641.4,497.31,636.39,497.92,629.31Z"/><path fill="#1a87c4" d="M422.72,750.13c4-21.45,16.13-25.68,26.12-50.79,6-15.11,6.71-32.46,8.1-67.17,2.13-53.21-3.48-57.29,3.53-70.22,18.47-34.08,72.88-35.21,72.12-40.9-21.09,7.24-79.62.65-88.26-.46h0l-.71-.09h-.22l-.11,0a89.19,89.19,0,0,0-7.32,26.85,90.93,90.93,0,0,0,5.85,43q-.15,45.32-.32,90.64c-24.08,21.8-43,99.91-43,99.91.75,1,1.56,1.92,2.43,2.87,6.54,5.07,24.4,13.39,29,15.5l.09,0,.09,0,.24.11.14.06.1.05.13.06.06,0,.25.12C425.26,787.79,419,769.93,422.72,750.13Z"/><path fill="none" stroke="#fff" stroke-miterlimit="10" stroke-width="3" d="M440.17,528.27s51.46,13,93.23,0"/></g><g data-name="Doctor/Head/Male"><g data-name="Doctor/Head/Male/7"><path d="M471.43,332.38s2.5,30.3,14.49,43.44.22-44.45.22-44.45Z"/><path fill="#ea9d7d" d="M509.92,390.53c-.62-2.21,2-7.61,3.61-10.72-10.86,1.67-23.78-6-30.51-19.56a4.43,4.43,0,0,1-1.29.47s-1.06,28.21-7.17,28.56c-7.15,6.14-30.51,26.9-25.75,36.53,4,8.08,25.56,3.91,57.71-2.3a16.14,16.14,0,0,0,8.39-4c6.75-6.44,4.9-18,4-20.61C517.64,395.49,510.83,393.73,509.92,390.53Z"/><path fill="#d18165" d="M486.48,393.74c-4.27-9.24,4.68-11.19,4.68-11.19l-.06-.13c5.92,4,12.54,5.73,18.47,4.57.28-.05.55-.12.82-.19a46.92,46.92,0,0,1,3.14-7.06c-10.86,1.67-23.16-6.72-29.89-20.28a2,2,0,0,1-1.91,1.19s-.2,5.24-.91,11.24h0c-.94,7.92-2.77,17.18-6.26,17.38-9.69,8.23-33.09,29.16-28.39,38.45s36.8,6,60.35-4.22c3.59-1.56,6.52-3.09,8.65-4.27C500.46,420.85,490.3,402,486.48,393.74Z"/><path fill="#ea9d7d" d="M496.73,307c-12.4,2.42-20,18.21-18.25,36.54h-.1c-3.39.66-5.38,5-4.46,9.77s4.42,8,7.81,7.37a2.79,2.79,0,0,0,2-1c6.88,13.87,19.52,22.1,30.53,20,13.65-2.66,18.48-19.51,14.46-40.15S510.39,304.37,496.73,307Z"/><path fill="#d18165" d="M478.27,347.78a13.76,13.76,0,0,0-.08,5A10,10,0,0,0,479,355c.14.39.38.75.56,1.16a12.51,12.51,0,0,1,.64,1.27,6.74,6.74,0,0,1-1.35-.59,6.91,6.91,0,0,1-1.15-.95,5.62,5.62,0,0,1-1.19-5.8A4.77,4.77,0,0,1,478.27,347.78Z"/><path fill="#be3e5f" d="M510,364.22a83.25,83.25,0,0,1,10.68,4s.82-5.31-3.4-6.94S510,364.22,510,364.22Z"/><path fill="#d18165" d="M519.8,338.28c.45,2,.84,4,1.39,5.93a12,12,0,0,0,1.06,2.6c.19.33.54.8.81,1.22s.57.9.84,1.38a6.29,6.29,0,0,1,.92,3.44,2.93,2.93,0,0,1-.93,1.92,3.88,3.88,0,0,1-1.69.88,12.5,12.5,0,0,1-6.34-.45,24.09,24.09,0,0,0,5.84-1,2.82,2.82,0,0,0,.95-.64,1.17,1.17,0,0,0,.29-.81,5.78,5.78,0,0,0-.8-2.37c-.23-.42-.48-.83-.74-1.26s-.53-.8-.81-1.37a10.71,10.71,0,0,1-.92-3.18A19.6,19.6,0,0,1,519.8,338.28Z"/><path d="M502.72 335.16a45 45 0 006 .63 17.81 17.81 0 002.92-.15c1-.09 2-.35 3-.55a7.09 7.09 0 01-2.73 1.72 9.11 9.11 0 01-3.23.51 10.45 10.45 0 01-3.2-.57A8.16 8.16 0 01502.72 335.16zM527.63 335.48c-.27.09-.55.16-.83.23a10.88 10.88 0 01-1.59.23 10.1 10.1 0 01-1.65 0 8.21 8.21 0 01-3.1-.86c1.48-.15 2.88-.28 4.23-.51.6-.09 1.18-.21 1.76-.35.26 0 .51-.11.76-.18C527.36 334.51 527.5 335 527.63 335.48zM526.12 345.84a1.54 1.54 0 01-1.8-1.21l-.86-4.4a1.55 1.55 0 011.22-1.8 1.53 1.53 0 011.79 1.22l.86 4.39A1.54 1.54 0 01526.12 345.84zM510.71 346.78a1.53 1.53 0 01-1.8-1.21l-.86-4.4a1.53 1.53 0 013-.58l.86 4.39A1.53 1.53 0 01510.71 346.78z"/><path fill="#25beef" d="M499.65,350.27s24.68-1.56,30.37,0c0,0,2.09,25.49-14.22,29.12s-25.84-9-25.84-9Z"/><path fill="#25beef" d="M481.64 360.8a25.36 25.36 0 013.61 2.58q1.68 1.41 3.21 3a42.88 42.88 0 012.89 3.28 25 25 0 012.49 3.68 25.65 25.65 0 01-3.61-2.59 40.9 40.9 0 01-3.2-3c-1-1-2-2.14-2.9-3.28A25.43 25.43 0 01481.64 360.8zM482.2 344.39a49.35 49.35 0 016.1 1.49q3 .9 5.9 2t5.74 2.43a47.54 47.54 0 015.54 2.95 49.79 49.79 0 01-6.1-1.49c-2-.61-4-1.27-5.89-2s-3.86-1.55-5.75-2.43A49.9 49.9 0 01482.2 344.39z"/><path fill="#fff" d="M513.44,353.27a13,13,0,0,1,3.63-1.5,17.33,17.33,0,0,1,3.87-.59,14.19,14.19,0,0,1,3.94.35,8.16,8.16,0,0,1,3.58,1.74c-1.33-.13-2.54-.17-3.77-.19s-2.45.06-3.67.09C518.55,353.25,516.09,353.44,513.44,353.27Z"/><path fill="#1a87c4" d="M515.8,379.39a14.75,14.75,0,0,0,7.25-3.93c-4.09-1.12-10.43-1.54-15.29-7.07a19.26,19.26,0,0,1-4.68-10.08,18.57,18.57,0,0,1,1.06-8.29c-2.71.13-4.49.25-4.49.25L490,370.36S499.48,383,515.8,379.39Z"/><path d="M525.61,329s-8-9.29-34.05-4.46c0,0,4.1,8.6.37,10.56s-4.62,2.49-3,7.63,4.6,10.45.28,8.84-11.58-13.84-13.87-4.5c-2.22,9,3,12,2.5,13.32a.53.53,0,0,1-.32.27c-1.67.51-8.26-9.84-9.83-19.61-2.12-13.2,4.28-29.31,16.43-35.75a30,30,0,0,1,10.8-3.12c21.46-2.9,45.65,9.56,44.88,17.76C539.55,322.62,536.6,325.88,525.61,329Z"/></g></g><g data-name="Doctor/Torso"><path fill="#ea9d7d" d="M618.8,501.73l-.32-3.21s15.49-7.39,18.8-10.88,10-11.72,11.48-11.68,4.56,2,2.1,5.8-7.2,11.56-5.41,11.88,25.55-3.06,27-2.37,5.09,3.6,2.59,6.61a12.58,12.58,0,0,1-5,3.85s4.18,6.27-4.41,6.24c0,0,1.09,6.21-5.58,5.17,0,0-.29,6-5.9,5.73s-35.34,3.76-35.34,3.76"/><path fill="#d18165" d="M656.42,518.28a30,30,0,0,1-4.11-.73,32.65,32.65,0,0,1-4-1.24,19,19,0,0,1-3.89-2,7.15,7.15,0,0,1-1.8-1.77A3.57,3.57,0,0,1,642,511a3.22,3.22,0,0,1,.31-1.82l-.06.13a5.3,5.3,0,0,1,.54-1,5.72,5.72,0,0,1,.67-.82,5.19,5.19,0,0,1,1.81-1.19,5.3,5.3,0,0,1,2.13-.35,6.64,6.64,0,0,1,1,.11c.32.07.63.17.94.25L647.48,508a8.81,8.81,0,0,1,0-2.76,5.55,5.55,0,0,1,1.18-2.73,4.2,4.2,0,0,1,2.7-1.48,6.65,6.65,0,0,1,1.4-.06c.44.05.86.12,1.28.2l-1.1,1.21a6.64,6.64,0,0,1,0-2.14,4.47,4.47,0,0,1,.85-2,3.29,3.29,0,0,1,1.71-1.18,4.76,4.76,0,0,1,1.9-.17c-.29.12-.59.2-.86.32a4.67,4.67,0,0,0-.76.43,2.69,2.69,0,0,0-1,1.21,3.84,3.84,0,0,0-.25,1.51,5.06,5.06,0,0,0,.26,1.5l.42,1.13-1.52.08c-.34,0-.68,0-1,0a4.43,4.43,0,0,0-.88.17,1.9,1.9,0,0,0-1.14.83,3.23,3.23,0,0,0-.45,1.49,6.83,6.83,0,0,0,.09,1.82l.46,2.23-2.34-.55a4.89,4.89,0,0,0-1.15-.18,2.45,2.45,0,0,0-1,.16,2.24,2.24,0,0,0-.81.52,4.32,4.32,0,0,0-.34.39,4,4,0,0,0-.24.38l-.05.07v.06c0,.09-.07.1,0,.16a.78.78,0,0,0,.12.37,5,5,0,0,0,1,1.17,22.17,22.17,0,0,0,3.18,2.17c1.15.69,2.35,1.31,3.55,2Z"/><path fill="#ea9d7d" d="M619.83,498.64l10.33.13L626.31,521c-14.66,2.47-69.63,8.68-83.71-5.16-13.18-13-21.39-60.38-21.39-60.38l31.33-1.92,14.11,35.17a6.89,6.89,0,0,0,5.61,4.29l49.49,5.77"/><path fill="none" stroke="#2f170b" stroke-miterlimit="10" stroke-width="2" d="M647.52,494.79s-3.88,16.29-18.76,12.23"/><path fill="#ff5061" d="M364.49,610.17h86.22A7.33,7.33,0,0,1,458,617.5V664a0,0,0,0,1,0,0H357.16a0,0,0,0,1,0,0V617.5A7.33,7.33,0,0,1,364.49,610.17Z" transform="rotate(-1.57 407.717 637.379)"/><polygon fill="#fc7e85" points="357.92 665.38 357.63 654.77 368.88 665.08 357.92 665.38"/><polygon fill="#fc7e85" points="458.76 662.62 458.47 652 447.8 662.92 458.76 662.62"/><path fill="#fc7e85" d="M356.64,618.89l.08,2.67,100.84-2.77-.07-2.67A7.34,7.34,0,0,0,450,609l-86.19,2.36A7.33,7.33,0,0,0,356.64,618.89Z"/><line x1="620.38" x2="620.99" y1="498.63" y2="520.8" fill="none" stroke="#2f170b" stroke-linecap="round" stroke-linejoin="round" stroke-width="6"/><path fill="#25beef" d="M556.17,450.52l-11.18-32a39.08,39.08,0,0,0-13.48-18.61,28.52,28.52,0,0,0-5.15-3.08,1,1,0,0,0-1.41,1l3.52,58.73,24-.66A4,4,0,0,0,556.17,450.52Z"/><path fill="#1a87c4" d="M525.7,410.22l2.77,46.28,15.76-.43c.06-11.26-1.12-23.67-8.07-37.31-4.74-9.29-7.34-9.69-8.43-9.61A3.25,3.25,0,0,0,525.7,410.22Z"/><path fill="#ea9d7d" d="M386.24,594.78a24,24,0,0,0,.58-5.53c-.2-15.56-.34-75,7.88-102.26,2.61-8.7,27.61-53.32,27.61-53.32L460,440.56l-31.46,55.67a27.66,27.66,0,0,0-3,7.92l-17.75,86.16a8.09,8.09,0,0,0,1.67,6.78c4.38,5.31,13.06,16.11,13,18.14-.11,2.71-2,7.47-11.25-4.07,0,0-1.49,1.62-1.7,7s-.41,25.86-2.09,26.25-5.34,5.38-4.85-22.53c0,0-2.51-1.31-2.61,1.1s-.84,25.33-3.77,22.95S394,640.22,394.38,622c0,0-1.91-1.43-2.25-.54s-1.79,22.57-3.6,22.5-4.22,3.76-1.49-27.23c0,0-1-.49-2.07,2.64s-5,16.86-6.56,13.17-.74-4.1,4.26-20.06l3.57-17.67Z"/><path fill="#d18165" d="M460,440.56l-8.88-1.62c-6.36,8.55-14.4,14.85-24.65,30.78-8,12.41-13,24.95-15.28,30.26-6.17,14.54-4.63,21.82-8,57.36-2,21.34-3.07,32-4.29,37.61,0,0-8.79,40.11-3.7,49.85a2.75,2.75,0,0,0,1,1.09c2.93,2.38,3.68-20.53,3.77-22.95s2.61-1.1,2.61-1.1c-.49,27.91,3.18,22.92,4.85,22.53s1.88-20.82,2.09-26.21h0v0c.21-5.34,1.7-7,1.7-7,9.27,11.54,11.14,6.78,11.25,4.07.08-2-8.6-12.83-13-18.14a8.09,8.09,0,0,1-1.67-6.78l17.75-86.16a27.66,27.66,0,0,1,3-7.92Z"/><path fill="#25beef" d="M528.71,524.67l-77.48,2.13a8.43,8.43,0,0,1-8.6-9.46l15-121.17,16.5-6.77c7.11,14.08,30.08,16.25,36.3,1.75l14.45,5a10.89,10.89,0,0,1,8.6,10.92l0,4.51q-.3,54.4-.59,108.81C532.85,520.73,532.81,522.19,528.71,524.67Z"/><path fill="#25beef" d="M408.69,458a4.06,4.06,0,0,1-1.11-5.65l27.12-39.92s9.61-13.14,22.91-16.25l8.7,39.52-25.82,41.68a1.35,1.35,0,0,1-1.89.41Z"/><path fill="#1a87c4" d="M440.49,477.37,466.14,436l-.07-.39a4.34,4.34,0,0,0-7-2.61c-5,4-11.35,10.89-17.16,17.19-6.06,6.57-12.57,13.62-15.52,19.56l12.18,8.06A1.35,1.35,0,0,0,440.49,477.37Z"/><path fill="#1a87c4" d="M532.85,520.43c-5.93-1.91-21.2-1.56-44.55-8.22-21.9-6.25-26.43-11.68-28.52-15.6-4.9-9.23-2.19-21.17-1.07-26.08,2-8.83,2.55-12.19,6.74-23.42,1.41-3.77,1.66-12.81-.37-13.49-2.35-.8-8.66,9.43-15,23.58l-7.43,60.14a8.43,8.43,0,0,0,8.6,9.46l77.48-2.13a4.25,4.25,0,0,0,4.14-4.24Z"/><path fill="#fc7e85" d="M423.86,609.71l-12.05.33a7.76,7.76,0,0,0-.71,3.8c.07,2.43,3.37,4.77,3.37,4.77s6.6,1.08,8.11.32S423.86,609.71,423.86,609.71Z"/><rect width="23.8" height="9.08" x="465.92" y="423.42" fill="#e3eaf3" rx="2" transform="rotate(178.43 477.827 427.956)"/><path fill="none" stroke="#2f170b" stroke-linecap="round" stroke-linejoin="round" stroke-width="5" d="M680.52,488.29s-195.61,56.22-185.84-72.62"/><path fill="none" stroke="#2f170b" stroke-linecap="round" stroke-linejoin="round" stroke-width="3" d="M475.49,353.55c-8.25-1-9,14.31-9,14.31,3.14,18.48,19.51,49.28,28.21,47.81l5-.85c8.7-1.48,28.61-30.24,25.47-48.72"/><ellipse cx="476.86" cy="353.5" fill="#2f170b" rx="2.26" ry="3.6" transform="rotate(-9.63 476.96 353.535)"/><circle cx="680.49" cy="487.22" r="8.96" fill="#2f170b"/><circle cx="680.49" cy="487.22" r="5.7" fill="#1a87c4"/><circle cx="680.49" cy="487.22" r="2.64" fill="#abbcca"/></g></g></svg>